@startuml diagrama de clases


title diagrama de clases

class AlgoOlimpicos{
    - atletas<Atleta>
    - criterio: Criterio 
    ---
    + {static} algoOlimpicos(criterio:String):AlgoOlimpicos
    + obtenerAtletaSegunCriterio():String
    + registrarAtleta(nombre:String, peso:Int, altura:Float, edad:Int,nacionalidad:String)
    + pesoMaximoDe(nombre:String):Peso  
}

Class Atleta{
    - peso:Peso
    - altura:Int
    - nacionalidad:Nacionalidad
    - edad:Edad
    ---
    + {static} Atleta(nombre:String, peso:Int, altura:Int, edad:Int,nacionalidad:String):Atleta
    + darNombre():String    
    + compararNombre(nombre:String):Bool
    + calcularPesoMaximo():Peso
}

Abstract Class Criterio{
    + obtenerAtletaPorCriterio(atletas<Atleta>):Atleta
}


Class Peso{
    - valorNumerico:Int
    - convertirAPesoLunar()
    ---
    + {static} peso(valorNumerico:Int):Peso
    + compararCon(unPeso:Int, unaPrecision:Float):Bool
    + compararPesoEnLuna(unPeso:Int, unaPrecision:Float):Bool
    + multiplicarPor(unNumero:Int)
    + obtenerValorNumerico:Int
    + <(unPeso:Peso):Bool
    + >(unPeso:Peso):Bool
}

interface CalculadorDePorcentajes{
    + calcularPorcentaje(unPeso:Peso):Peso
}


class Nacionalidad implements CalculadorDePorcentajes{
    - condicion:Condicion
    ---
    + {static} nacionalidad(unaCondicion:Condicion):Nacionalidad
    + calcularPorcentaje(unPeso:Peso):Peso
}


class Edad implements CalculadorDePorcentajes{
    - plenitud:Plenitud
    ---
    + {static} Edad(plenitud:Plenitud, altura: Int):Edad
    + calcularPorcentaje(unPeso:Peso):Peso
}

 
 
Class SeleccionadorDeCriterio{
    + {static} seleccionar(unCriterio:String):Criterio
}

Class SeleccionadorDeEdad{
    + {static} seleccionar(unaEdad:Int, unaAltura:Int):Edad
}

Class SeleccionadorDeNacion{
    - nacionLocal:String
    - limitrofes:<String>
    ---
    + {static} seleccionar(unaNacion:String):Nacionalidad
}



SeleccionadorDeEdad --> Edad
SeleccionadorDeNacion --> Nacionalidad
SeleccionadorDeCriterio --> Criterio

Atleta *-- Nacionalidad
Atleta *-- Edad
Atleta -left-> Peso
Atleta --> SeleccionadorDeEdad
Atleta --> SeleccionadorDeNacion

Criterio --> Atleta

AlgoOlimpicos "1" o-down- "1..*" Atleta
AlgoOlimpicos *-down- Criterio
AlgoOlimpicos --> SeleccionadorDeCriterio
AlgoOlimpicos --> Peso



@enduml